<?xml version="1.0" encoding="utf-8"?>
<!-- Generator: Adobe Illustrator 19.0.0, SVG Export Plug-In . SVG Version: 6.00 Build 0)  -->
<svg version="1.1" id="Layer_1" xmlns="http://www.w3.org/2000/svg" xmlns:xlink="http://www.w3.org/1999/xlink" x="0px" y="0px"
	 viewBox="5 -1 132.9 112.1" enable-background="new 0 0 769.9 129.1" xml:space="preserve">
<g id="XMLID_254_">
	<path id="XMLID_256_" fill="#ffffff" d="M6.3,29.6c-3.1,0-6.3,2.5-6.3,5.6v40.2c0,3.1,3.2,5.2,6.3,5.2H40v-51H6.3z"/>
	<path id="XMLID_255_" fill="#ffffff" d="M134.9,50.8l-31.8-18.3l0,0L47.9,0.7C44.5-1.3,40,1.2,40,5.1v24.6h36.7
		c3.1,0,5.3,2.5,5.3,5.6v9.3l21-12v45.4l-21-12v9.6c0,3.1-2.2,5.2-5.3,5.2H40v24.7c0,3.9,4.5,6.3,7.9,4.4l55.2-31.7l0,0l31.8-18.3
		C138.3,57.6,138.3,52.7,134.9,50.8z"/>
</g>
</svg>
